<?xml version="1.0" encoding="UTF-8"?>
<svg id="Warstwa_1" xmlns="http://www.w3.org/2000/svg" version="1.1" viewBox="0 0 850.39 425.2">
  <!-- Generator: Adobe Illustrator 29.3.0, SVG Export Plug-In . SVG Version: 2.1.0 Build 146)  -->
  <defs>
    <style>
      .st0 {
        fill: #878786;
      }

      .st0, .st1, .st2 {
        fill-rule: evenodd;
      }

      .st1 {
        fill: #e3000f;
      }

      .st2 {
        fill: #d9dada;
      }
    </style>
  </defs>
  <polygon class="st2" points="110.84 288.98 101.94 322.96 253.9 322.96 262.84 288.98 110.84 288.98"/>
  <path class="st0" d="M405.76,218.75h-50.26l8.17-31.71h63.67c4.56,0,9.26-3.62,10.43-8.05h0s2.31-8.85,2.31-8.85l2.31-8.86c1.16-4.42-1.64-8.05-6.21-8.05h-95.41c-4.57,0-9.27,3.62-10.44,8.04h0s-20.17,76.82-20.17,76.82l-20.15,76.81c-1.17,4.43,1.62,8.05,6.2,8.05h96.58c4.58,0,9.28-3.62,10.42-8.05l2.32-8.85,2.31-8.85c1.15-4.44-1.64-8.05-6.21-8.05h-64.54l9.29-37.28h50.63c4.57,0,9.27-3.62,10.44-8.05l2.26-8.51,2.25-8.52c1.17-4.42-1.61-8.05-6.18-8.05Z"/>
  <path class="st0" d="M743.83,102.28h-32.68c-4.57,0-10.12,3.26-12.37,7.26h0l-86.1,153.4c-2.23,3.99-4.34,3.54-4.7-1.03l-3.92-50.18-3.92-50.19c-.36-4.57-4.39-8.3-8.97-8.3h-82.72c-39.47,0-62.7,23.84-65.2,52.5-2.12,24.19,11.84,36.4,27.38,44.16,19.33,9.86,41.51,11.51,40.34,24.9-.8,9.16-14.13,12.37-14.13,12.37-4.44,1.07-11.84,1.95-16.41,1.95h-45.63c-4.59,0-9.28,3.62-10.43,8.05l-2.34,8.88-2.32,8.87c-1.15,4.43,1.63,8.05,6.21,8.05h61.82c39.69,0,64.32-23.73,66.91-53.32,2.26-25.84-13.64-37.37-28.26-44.88-21.6-10.79-40.61-11.03-39.52-23.48.87-9.86,12.65-12.57,12.65-12.57,4.47-1.02,11.86-1.84,16.43-1.84h41.94c4.58,0,8.6,3.74,8.96,8.3l4.52,59.74,4.53,59.75c.35,4.56,4.38,8.3,8.96,8.3h27.99c4.58,0,10.25-3.21,12.62-7.13l46.65-77.73,75.76-128.7h.02c2.34-3.92.53-7.13-4.05-7.13Z"/>
  <polygon class="st2" points="345.79 102.24 337.01 136.25 650.27 136.25 668.93 102.24 345.79 102.24"/>
  <g>
    <path class="st1" d="M184.68,176.79h26.59l7.36-27.23c-6.82,1.71-13.48,5.06-19.34,9.68-5.15,4.07-11.27,12.04-14.61,17.55Z"/>
    <path class="st1" d="M184.72,210.87c3.39,4.61,8.37,7.94,14.82,9.39l7.41-27.43h-27.62c.2,5.72,2.49,14.07,5.4,18.04Z"/>
    <path class="st1" d="M179.71,102.27c-11.1,0-22.62,8.8-25.58,19.55l-38.81,150.16h151.95l44.53-169.72h-132.09ZM206.87,221.05h0c10.09,0,20.59-4.11,29.27-10.98,4.46-3.52,8.38-7.73,11.53-12.36h21.16c-12.09,24.53-38.38,42.64-64.98,42.75h-.06c-.97,0-1.91-.06-2.85-.12l-5.62,20.77h-6.8l5.8-21.5c-8.8-1.63-16.4-5.53-22.15-11.19-7.76-7.62-12.11-18.34-12.1-30.34,0-4.65.65-9.51,1.98-14.48,4.11-15.28,13.89-28.88,26.37-38.73,10.46-8.23,22.87-13.85,35.67-15.48l4.22-15.62h6.87l-4.08,15.09c.17,0,.34-.02.5-.02,12.88-.02,23.93,4.41,31.68,12.05,7.76,7.61,12.1,18.34,12.09,30.33,0,.87-.05,1.74-.09,2.63h-19.73c-.06-6.04-1.8-11.25-4.82-15.41-4.6-6.21-12.06-10.15-22.18-10.19-.91,0-1.83.07-2.74.14l-19.64,72.63c.24,0,.48.03.71.03Z"/>
  </g>
</svg>